<svg viewBox="0 0 1200 900" xmlns="http://www.w3.org/2000/svg">
<rect x="0" y="0" width="1200" height="900" fill="#F8DBD2"/>
<g fill="none" stroke="#725CFC" stroke-width="1.3" stroke-linecap="round" stroke-linejoin="round" opacity="0.92">
<path d="M 79.58 900.00 C 78.29 898.75 77.23 896.24 71.83 892.48 C 66.42 888.72 52.41 881.20 47.15 877.44 C 41.89 873.68 43.25 880.36 40.29 869.92 C 37.33 859.47 31.48 827.30 29.37 814.76 C 27.26 802.23 27.50 799.72 27.63 794.71 C 27.77 789.69 27.26 790.11 30.16 784.68 C 33.07 779.25 42.27 770.89 45.05 762.12 C 47.83 753.34 45.30 740.81 46.83 732.03 C 48.36 723.26 52.77 721.17 54.22 709.47 C 55.68 697.77 56.12 673.96 55.55 661.84 C 54.98 649.72 51.42 643.04 50.80 636.77 C 50.18 630.50 44.46 642.20 51.81 624.23 C 59.17 606.27 87.76 548.19 94.91 528.97 C 102.07 509.75 96.76 522.70 94.75 508.91 C 92.74 495.13 84.17 462.53 82.84 446.24 C 81.51 429.94 86.18 421.17 86.78 411.14 C 87.38 401.11 85.86 392.34 86.47 386.07 C 87.08 379.81 86.60 380.22 90.43 373.54 C 94.26 366.85 106.56 354.74 109.44 345.96 C 112.33 337.19 107.20 326.60 107.74 320.89 C 108.29 315.19 109.82 314.39 112.73 311.73 C 115.65 309.06 119.00 306.90 125.26 304.91 C 131.52 302.92 142.80 302.72 150.31 299.77 C 157.83 296.82 165.34 289.73 170.35 287.22 C 175.37 284.71 176.20 284.49 180.38 284.73 C 184.55 284.96 189.56 284.78 195.41 288.62 C 201.25 292.46 209.60 304.21 215.45 307.77 C 221.29 311.33 224.49 312.39 230.48 309.98 C 236.47 307.57 241.56 298.60 251.40 293.31 C 261.24 288.03 281.44 284.12 289.52 278.27 C 297.59 272.42 296.74 262.63 299.85 258.22 C 302.95 253.80 303.84 253.10 308.14 251.79 C 312.45 250.48 317.33 248.94 325.68 250.36 C 334.03 251.77 348.23 259.24 358.25 260.29 C 368.27 261.35 379.12 258.20 385.80 256.69 C 392.48 255.18 394.41 253.48 398.33 251.23 C 402.25 248.98 403.92 248.78 409.35 243.18 C 414.78 237.57 426.05 222.71 430.90 217.62 C 435.74 212.53 435.91 213.43 438.41 212.63 C 440.92 211.84 440.50 211.40 445.93 212.83 C 451.36 214.27 460.96 220.09 470.98 221.23 C 481.00 222.37 496.03 218.55 506.05 219.67 C 516.08 220.79 524.43 226.31 531.11 227.94 C 537.79 229.58 541.96 229.68 546.14 229.47 C 550.31 229.26 551.26 229.85 556.16 226.70 C 561.06 223.55 570.13 214.16 575.56 210.58 C 580.98 207.01 580.69 206.77 588.73 205.25 C 596.77 203.73 612.94 201.78 623.80 201.47 C 634.66 201.17 646.76 203.38 653.86 203.42 C 660.96 203.47 662.63 202.89 666.39 201.74 C 670.15 200.60 671.82 199.97 676.41 196.56 C 681.00 193.15 686.43 184.07 693.95 181.29 C 701.46 178.51 714.84 180.84 721.50 179.87 C 728.16 178.91 728.05 179.32 733.90 175.49 C 739.74 171.66 748.62 161.58 756.58 156.90 C 764.53 152.23 772.44 152.86 781.63 147.44 C 790.81 142.02 802.51 129.40 811.69 124.39 C 820.88 119.38 825.11 121.40 836.74 117.38 C 848.38 113.36 868.98 106.46 881.51 100.28 C 894.04 94.09 901.82 84.44 911.90 80.27 C 921.98 76.10 933.19 79.20 941.96 75.27 C 950.73 71.35 956.58 60.43 964.51 56.70 C 972.44 52.98 982.88 53.13 989.56 52.91 C 996.24 52.69 1000.42 53.72 1004.59 55.41 C 1008.77 57.10 1011.69 59.86 1014.61 63.06 C 1017.54 66.26 1020.47 70.91 1022.13 74.61 C 1023.79 78.30 1024.31 79.70 1024.56 85.24 C 1024.82 90.77 1023.43 101.95 1023.68 107.80 C 1023.93 113.65 1024.66 116.10 1026.08 120.33 C 1027.49 124.57 1028.12 126.51 1032.15 133.20 C 1036.18 139.89 1046.71 147.13 1050.25 160.45 C 1053.80 173.76 1052.25 202.59 1053.41 213.09 C 1054.56 223.59 1053.73 217.19 1057.20 223.46 C 1060.67 229.72 1070.04 234.91 1074.21 250.70 C 1078.39 266.48 1078.59 303.52 1082.25 318.14 C 1085.92 332.77 1093.77 333.39 1096.17 338.44 C 1098.58 343.49 1097.48 343.45 1096.67 348.47 C 1095.86 353.48 1090.92 360.17 1091.29 368.52 C 1091.67 376.88 1097.85 388.16 1098.93 398.61 C 1100.01 409.05 1098.50 423.68 1097.78 431.20 C 1097.05 438.72 1099.24 435.98 1094.57 443.73 C 1089.89 451.49 1079.53 458.10 1069.73 477.74 C 1059.93 497.38 1044.97 540.78 1035.78 561.56 C 1026.60 582.34 1019.39 594.59 1014.61 602.43 C 1009.83 610.27 1011.30 606.64 1007.10 608.60 C 1002.90 610.56 994.47 612.02 989.41 614.21 C 984.35 616.39 990.39 609.61 976.73 621.73 C 963.07 633.84 921.62 671.67 907.47 686.91 C 893.32 702.15 899.10 706.48 891.86 713.17 C 884.61 719.85 871.55 720.11 863.99 727.02 C 856.44 733.92 852.20 743.73 846.54 754.60 C 840.89 765.46 834.20 783.92 830.06 792.20 C 825.92 800.48 827.28 800.29 821.71 804.25 C 816.15 808.22 808.77 809.19 796.66 815.98 C 784.55 822.76 758.66 840.14 749.06 844.95 C 739.46 849.76 744.47 846.52 739.04 844.84 C 733.61 843.16 722.34 836.25 716.49 834.87 C 710.65 833.50 707.47 834.90 703.97 836.56 C 700.46 838.23 698.40 839.38 695.48 844.85 C 692.56 850.32 689.19 864.34 686.43 869.38 C 683.67 874.41 682.25 873.99 678.91 875.06 C 675.57 876.12 673.49 876.77 666.39 875.77 C 659.29 874.77 643.42 869.79 636.33 869.05 C 629.23 868.31 627.27 869.50 623.80 871.32 C 620.33 873.13 617.87 875.16 615.50 879.94 C 613.12 884.72 610.55 896.66 609.56 900.00 "/>
<path d="M 593.30 900.00 C 593.43 898.75 592.90 896.24 594.04 892.48 C 595.19 888.72 599.33 880.78 600.19 877.44 C 601.04 874.09 600.24 874.13 599.17 872.42 C 598.09 870.72 596.31 868.45 593.74 867.19 C 591.16 865.93 590.81 864.81 583.72 864.87 C 576.62 864.94 562.00 868.56 551.15 867.59 C 540.29 866.62 526.10 860.65 518.58 859.05 C 511.06 857.46 513.15 857.79 506.05 858.01 C 498.96 858.24 486.43 858.50 475.99 860.40 C 465.55 862.29 455.53 866.61 443.42 869.38 C 431.32 872.15 415.03 873.78 403.34 877.01 C 391.65 880.24 379.54 885.90 373.28 888.77 C 367.01 891.64 367.57 892.37 365.76 894.24 C 363.96 896.12 363.00 899.04 362.45 900.00 "/>
<path d="M 174.48 900.00 C 173.85 899.16 173.19 897.08 170.71 894.99 C 168.23 892.90 170.92 892.92 159.59 887.47 C 148.26 882.01 114.95 869.38 102.71 862.27 C 90.48 855.17 89.98 850.68 86.16 844.85 C 82.33 839.02 80.85 840.67 79.77 827.30 C 78.69 813.93 78.24 784.26 79.69 764.62 C 81.14 744.99 87.36 724.51 88.47 709.47 C 89.57 694.43 86.00 684.82 86.32 674.37 C 86.64 663.93 89.59 656.41 90.38 646.80 C 91.18 637.19 88.22 629.97 91.11 616.71 C 94.00 603.46 103.99 580.63 107.72 567.26 C 111.46 553.89 112.81 545.38 113.52 536.49 C 114.23 527.60 114.01 525.21 111.96 513.93 C 109.92 502.65 103.18 480.50 101.24 468.80 C 99.30 457.10 99.06 452.51 100.34 443.73 C 101.61 434.96 104.72 426.60 108.87 416.16 C 113.02 405.71 121.24 388.61 125.22 381.06 C 129.21 373.51 129.85 373.80 132.78 370.86 C 135.71 367.93 139.04 365.28 142.80 363.44 C 146.56 361.60 141.54 360.33 155.32 359.82 C 169.10 359.30 209.60 361.07 225.47 360.33 C 241.34 359.59 241.75 358.16 250.52 355.35 C 259.29 352.54 270.15 348.20 278.08 343.46 C 286.01 338.73 292.69 330.89 298.12 326.94 C 303.55 323.00 301.46 323.98 310.65 319.77 C 319.83 315.57 342.38 306.97 353.24 301.72 C 364.09 296.47 364.09 293.38 375.78 288.29 C 387.47 283.20 407.52 274.87 423.38 271.19 C 439.25 267.51 449.27 266.99 470.98 266.21 C 492.69 265.44 535.28 267.22 553.65 266.54 C 572.03 265.86 571.61 264.63 581.21 262.12 C 590.81 259.61 601.25 252.79 611.27 251.50 C 621.29 250.21 634.66 254.16 641.34 254.39 C 648.02 254.63 645.51 254.84 651.36 252.93 C 657.20 251.01 667.64 247.59 676.41 242.91 C 685.18 238.23 693.95 229.39 703.97 224.83 C 713.99 220.27 723.15 221.27 736.53 215.56 C 749.92 209.84 774.25 196.17 784.27 190.53 C 794.29 184.88 791.44 186.70 796.66 181.68 C 801.88 176.67 810.56 165.10 815.57 160.45 C 820.58 155.79 819.85 156.30 826.72 153.73 C 833.59 151.16 847.17 148.49 856.78 145.01 C 866.40 141.54 876.06 136.08 884.41 132.87 C 892.76 129.65 895.21 127.56 906.89 125.72 C 918.57 123.89 942.38 125.44 954.49 121.84 C 966.60 118.25 974.11 107.11 979.54 104.13 C 984.97 101.15 984.97 103.51 987.06 103.97 C 989.14 104.44 989.98 104.69 992.07 106.93 C 994.15 109.16 995.27 109.72 999.58 117.38 C 1003.89 125.05 1013.06 141.99 1017.92 152.92 C 1022.78 163.86 1025.40 169.22 1028.75 183.01 C 1032.10 196.80 1036.19 219.44 1038.01 235.65 C 1039.83 251.87 1038.24 263.60 1039.67 280.31 C 1041.09 297.03 1042.86 315.80 1046.56 335.93 C 1050.25 356.07 1058.81 386.49 1061.81 401.11 C 1064.81 415.74 1064.63 416.99 1064.58 423.68 C 1064.53 430.36 1066.35 427.02 1061.51 441.23 C 1056.66 455.43 1044.23 489.28 1035.50 508.91 C 1026.77 528.55 1016.37 546.67 1009.13 559.05 C 1001.89 571.43 1005.35 570.67 992.07 583.20 C 978.78 595.72 951.15 619.79 929.44 634.18 C 907.72 648.58 875.47 662.04 861.80 669.57 C 848.12 677.11 851.65 675.24 847.36 679.39 C 843.07 683.53 839.09 687.74 836.07 694.43 C 833.05 701.11 831.22 713.65 829.25 719.50 C 827.27 725.35 830.90 722.49 824.22 729.54 C 817.53 736.58 796.66 755.32 789.14 761.75 C 781.63 768.17 783.72 766.35 779.12 768.09 C 774.53 769.82 769.10 771.72 761.59 772.15 C 754.07 772.58 747.39 770.64 734.03 770.67 C 720.67 770.71 692.28 771.39 681.42 772.35 C 670.56 773.31 678.08 772.21 668.89 776.43 C 659.71 780.65 636.33 793.95 626.30 797.68 C 616.28 801.42 617.12 799.54 608.77 798.86 C 600.42 798.17 585.80 793.60 576.20 793.58 C 566.60 793.55 559.50 797.79 551.15 798.70 C 542.80 799.60 532.78 798.25 526.10 799.01 C 519.42 799.76 517.33 800.50 511.06 803.23 C 504.80 805.97 493.95 812.91 488.52 815.42 C 483.09 817.93 483.92 817.76 478.50 818.29 C 473.07 818.82 464.72 817.90 455.95 818.62 C 447.18 819.35 435.91 823.61 425.89 822.64 C 415.87 821.68 403.34 814.53 395.82 812.83 C 388.31 811.14 385.39 811.25 380.79 812.47 C 376.20 813.69 376.62 810.18 368.27 820.15 C 359.92 830.12 341.96 862.21 330.69 872.28 C 319.42 882.35 307.61 877.61 300.63 880.56 C 293.64 883.51 291.88 886.73 288.80 889.97 C 285.71 893.21 283.23 898.33 282.12 900.00 "/>
<path d="M 969.52 147.88 C 982.88 146.52 979.96 146.63 984.55 147.96 C 989.14 149.29 992.90 151.42 997.08 155.85 C 1001.25 160.28 1005.68 166.70 1009.60 174.57 C 1013.53 182.43 1017.45 192.46 1020.65 203.06 C 1023.84 213.66 1027.03 224.37 1028.76 238.16 C 1030.48 251.95 1029.59 269.38 1030.99 285.79 C 1032.39 302.21 1033.95 317.83 1037.16 336.63 C 1040.37 355.43 1047.75 384.94 1050.27 398.61 C 1052.79 412.28 1052.74 410.31 1052.27 418.66 C 1051.80 427.02 1052.20 433.70 1047.43 448.75 C 1042.67 463.79 1032.30 490.95 1023.69 508.91 C 1015.08 526.88 1004.79 543.56 995.77 556.55 C 986.74 569.53 981.41 576.31 969.52 586.85 C 957.63 597.38 945.44 608.08 924.43 619.74 C 903.41 631.40 860.75 648.55 843.45 656.82 C 826.15 665.09 825.99 665.60 820.63 669.36 C 815.28 673.12 815.82 671.87 811.33 679.39 C 806.83 686.91 799.83 705.29 793.67 714.48 C 787.50 723.68 779.69 730.05 774.34 734.54 C 769.00 739.03 766.64 739.81 761.59 741.43 C 756.54 743.05 752.82 743.60 744.05 744.26 C 735.28 744.91 721.09 746.11 708.98 745.38 C 696.87 744.65 680.17 740.82 671.40 739.88 C 662.63 738.93 665.55 737.46 656.37 739.71 C 647.18 741.96 630.90 751.14 616.28 753.40 C 601.67 755.67 579.96 752.89 568.68 753.29 C 557.41 753.70 561.29 753.13 548.64 755.86 C 535.99 758.58 509.48 764.34 492.77 769.64 C 476.07 774.94 461.67 785.33 448.43 787.65 C 435.20 789.98 425.57 783.66 413.36 783.59 C 401.15 783.51 383.99 785.33 375.15 787.19 C 366.32 789.04 370.26 786.42 360.35 794.71 C 350.43 803.00 331.04 823.76 315.66 836.93 C 300.28 850.11 278.50 866.58 268.06 873.76 C 257.62 880.93 262.21 878.86 253.03 879.99 C 243.84 881.12 224.22 881.39 212.94 880.53 C 201.67 879.66 195.61 878.23 185.39 874.79 C 175.16 871.35 162.02 865.44 151.58 859.89 C 141.14 854.34 129.29 846.09 122.76 841.50 C 116.22 836.90 115.67 837.19 112.38 832.31 C 109.09 827.44 105.70 820.61 103.03 812.26 C 100.35 803.90 97.75 790.53 96.33 782.17 C 94.92 773.82 93.98 774.65 94.53 762.12 C 95.08 749.58 98.80 721.59 99.62 706.96 C 100.43 692.34 98.85 689.00 99.42 674.37 C 99.99 659.75 99.97 638.40 103.02 619.22 C 106.08 600.04 114.80 572.67 117.75 559.30 C 120.69 545.93 120.33 546.14 120.70 539.00 C 121.07 531.85 121.42 526.46 119.98 516.43 C 118.53 506.41 113.52 488.44 112.03 478.83 C 110.54 469.22 110.83 464.62 111.04 458.77 C 111.25 452.92 111.97 448.75 113.29 443.73 C 114.61 438.72 116.55 433.37 118.96 428.69 C 121.38 424.01 124.63 419.42 127.77 415.64 C 130.90 411.86 133.61 409.39 137.79 406.00 C 141.96 402.62 148.23 398.02 152.82 395.35 C 157.41 392.69 150.52 392.38 165.34 390.00 C 180.17 387.62 224.23 383.87 241.76 381.06 C 259.30 378.25 262.24 376.07 270.56 373.14 C 278.88 370.22 281.67 369.69 291.69 363.51 C 301.71 357.33 319.06 342.77 330.69 336.09 C 342.32 329.40 351.85 328.13 361.45 323.40 C 371.06 318.66 380.49 311.47 388.31 307.69 C 396.13 303.90 397.08 303.73 408.35 300.69 C 419.62 297.66 443.84 291.63 455.95 289.46 C 468.06 287.29 467.22 287.11 481.00 287.68 C 494.78 288.26 517.75 292.87 538.62 292.92 C 559.50 292.96 589.56 288.14 606.26 287.98 C 622.96 287.81 631.32 291.55 638.83 291.92 C 646.35 292.28 633.82 298.22 651.36 290.19 C 668.89 282.15 723.85 255.73 744.05 243.72 C 764.25 231.70 762.98 225.10 772.58 218.11 C 782.19 211.11 791.39 208.35 801.67 201.75 C 811.95 195.15 823.80 184.22 834.24 178.49 C 844.68 172.76 852.61 171.10 864.30 167.37 C 875.99 163.64 886.85 159.36 904.38 156.11 C 921.92 152.86 956.16 149.23 969.52 147.88 Z"/>
<path d="M 954.49 172.76 C 962.42 171.63 968.68 170.43 974.53 171.04 C 980.38 171.64 984.97 173.26 989.56 176.38 C 994.15 179.50 997.84 183.21 1002.09 189.74 C 1006.34 196.28 1011.80 207.11 1015.06 215.60 C 1018.33 224.09 1019.59 224.37 1021.68 240.67 C 1023.77 256.96 1023.79 284.54 1027.61 313.37 C 1031.44 342.20 1041.96 394.01 1044.63 413.65 C 1047.30 433.29 1044.46 425.35 1043.64 431.20 C 1042.82 437.05 1043.92 437.05 1039.73 448.75 C 1035.54 460.45 1026.81 484.68 1018.51 501.39 C 1010.21 518.11 997.26 537.89 989.93 549.03 C 982.60 560.16 979.48 562.76 974.53 568.19 C 969.58 573.62 970.26 574.59 960.24 581.62 C 950.22 588.64 939.58 598.11 914.41 610.33 C 889.23 622.55 828.93 645.53 809.19 654.95 C 789.44 664.37 800.40 660.69 795.93 666.85 C 791.47 673.01 786.01 686.00 782.37 691.92 C 778.73 697.85 777.99 698.56 774.11 702.39 C 770.23 706.23 764.51 711.54 759.08 714.94 C 753.65 718.34 748.23 721.17 741.54 722.80 C 734.86 724.43 733.61 726.38 719.00 724.73 C 704.38 723.08 669.73 715.06 653.86 712.88 C 638.00 710.71 632.99 710.99 623.80 711.69 C 614.61 712.39 608.35 714.43 598.75 717.07 C 589.14 719.71 577.04 724.89 566.18 727.54 C 555.32 730.19 543.22 730.67 533.61 732.97 C 524.01 735.27 516.49 739.17 508.56 741.33 C 500.63 743.48 496.03 742.48 486.01 745.91 C 475.99 749.34 460.96 758.98 448.43 761.90 C 435.91 764.83 424.22 761.96 410.86 763.46 C 397.49 764.96 377.81 768.61 368.27 770.89 C 358.72 773.18 362.33 771.52 353.58 777.16 C 344.84 782.80 330.05 793.46 315.80 804.74 C 301.54 816.01 278.94 836.78 268.06 844.83 C 257.18 852.88 257.20 850.86 250.52 853.02 C 243.84 855.18 235.49 856.89 227.97 857.79 C 220.46 858.69 213.78 859.34 205.43 858.43 C 197.08 857.51 189.98 857.93 177.87 852.31 C 165.76 846.68 141.96 830.83 132.78 824.66 C 123.59 818.49 126.56 821.51 122.76 815.27 C 118.95 809.02 112.94 796.05 109.95 787.19 C 106.95 778.33 105.01 788.02 104.80 762.12 C 104.59 736.21 107.66 656.82 108.67 631.75 C 109.68 606.69 108.50 623.31 110.85 611.70 C 113.19 600.09 120.21 574.23 122.76 562.11 C 125.30 550.00 125.66 547.03 126.13 539.00 C 126.60 530.97 126.62 523.96 125.56 513.93 C 124.49 503.90 120.60 487.60 119.74 478.83 C 118.87 470.06 119.08 467.97 120.34 461.28 C 121.61 454.60 124.01 445.10 127.34 438.72 C 130.66 432.34 135.63 427.09 140.29 423.01 C 144.96 418.93 149.06 417.00 155.32 414.22 C 161.59 411.44 163.26 409.28 177.87 406.32 C 192.48 403.37 225.47 399.81 243.01 396.51 C 260.54 393.20 273.90 389.43 283.09 386.47 C 292.28 383.52 287.68 385.39 298.12 378.80 C 308.56 372.21 329.02 356.35 345.72 346.95 C 362.42 337.54 382.46 328.56 398.33 322.38 C 414.20 316.21 428.81 312.85 440.92 309.89 C 453.03 306.94 461.80 305.78 470.98 304.66 C 480.17 303.53 475.99 301.59 496.03 303.13 C 516.08 304.66 567.85 312.01 591.23 313.89 C 614.61 315.77 625.89 314.80 636.33 314.42 C 646.76 314.04 638.83 317.20 653.86 311.59 C 668.89 305.97 708.56 290.22 726.51 280.73 C 744.47 271.23 751.57 263.49 761.59 254.62 C 771.61 245.74 773.28 237.84 786.64 227.49 C 800.00 217.14 827.14 200.09 841.75 192.50 C 856.37 184.90 860.13 184.39 874.32 181.95 C 888.52 179.51 913.57 179.38 926.93 177.85 C 940.29 176.32 946.56 173.90 954.49 172.76 Z"/>
<path d="M 956.99 190.29 C 964.93 189.44 969.10 188.49 974.53 189.36 C 979.96 190.23 984.97 192.17 989.56 195.49 C 994.15 198.82 998.43 203.89 1002.09 209.33 C 1005.74 214.77 1009.20 222.07 1011.50 228.13 C 1013.79 234.19 1014.09 231.89 1015.86 245.68 C 1017.64 259.47 1018.65 286.63 1022.13 310.86 C 1025.62 335.10 1034.00 373.96 1036.77 391.09 C 1039.53 408.22 1039.29 404.04 1038.73 413.65 C 1038.18 423.26 1037.81 434.54 1033.41 448.75 C 1029.02 462.95 1020.25 483.43 1012.38 498.89 C 1004.51 514.35 993.34 531.09 986.20 541.50 C 979.06 551.92 974.67 555.93 969.52 561.36 C 964.37 566.80 966.56 567.11 955.29 574.09 C 944.02 581.08 927.48 591.76 901.88 603.26 C 876.28 614.76 821.19 634.17 801.67 643.10 C 782.15 652.02 791.51 649.10 784.76 656.82 C 778.01 664.54 767.54 682.15 761.17 689.42 C 754.80 696.68 751.08 697.72 746.56 700.41 C 742.03 703.10 739.46 704.63 734.03 705.56 C 728.60 706.48 732.36 708.64 713.99 705.97 C 695.62 703.30 643.42 691.96 623.80 689.54 C 604.18 687.13 608.35 688.65 596.24 691.48 C 584.13 694.31 564.51 702.79 551.15 706.52 C 537.79 710.25 528.18 710.53 516.08 713.86 C 503.97 717.18 490.19 721.96 478.50 726.46 C 466.81 730.96 458.87 737.58 445.93 740.86 C 432.99 744.15 415.85 743.06 400.84 746.18 C 385.82 749.31 365.76 756.12 355.85 759.61 C 345.94 763.10 352.32 760.03 341.37 767.13 C 330.42 774.23 304.04 792.09 290.15 802.23 C 276.27 812.37 265.90 822.66 258.04 827.97 C 250.18 833.27 249.27 832.29 243.01 834.07 C 236.74 835.85 227.56 837.67 220.46 838.67 C 213.36 839.66 206.68 840.40 200.42 840.04 C 194.15 839.68 192.90 841.33 182.88 836.48 C 172.86 831.62 149.06 816.76 140.29 810.91 C 131.52 805.06 133.89 806.58 130.27 801.37 C 126.65 796.16 121.37 787.04 118.56 779.67 C 115.75 772.29 114.18 781.75 113.39 757.10 C 112.60 732.45 113.37 655.99 113.81 631.75 C 114.25 607.52 113.22 626.74 116.01 611.70 C 118.81 596.66 128.62 565.32 130.58 541.50 C 132.54 517.69 127.12 484.26 127.77 468.80 C 128.41 453.34 131.54 454.30 134.47 448.75 C 137.39 443.19 141.41 438.86 145.30 435.47 C 149.20 432.08 150.31 431.39 157.83 428.39 C 165.34 425.39 176.62 420.70 190.40 417.46 C 204.18 414.22 224.22 412.40 240.50 408.95 C 256.78 405.50 268.60 405.59 288.10 396.76 C 307.60 387.93 337.88 366.31 357.50 355.99 C 377.13 345.67 391.53 340.28 405.85 334.83 C 420.17 329.37 427.56 326.43 443.42 323.27 C 459.29 320.12 482.67 316.18 501.04 315.92 C 519.42 315.66 535.28 318.97 553.65 321.73 C 572.03 324.49 597.35 330.55 611.27 332.50 C 625.20 334.45 629.69 333.84 637.20 333.43 C 644.72 333.02 643.15 334.35 656.37 330.04 C 669.58 325.73 703.97 312.57 716.49 307.56 C 729.02 302.55 722.76 306.71 731.52 299.98 C 740.29 293.26 758.35 277.51 769.10 267.21 C 779.86 256.91 783.53 248.65 796.06 238.16 C 808.59 227.67 831.63 211.28 844.26 204.26 C 856.89 197.25 858.04 197.72 871.82 196.08 C 885.59 194.44 912.73 195.40 926.93 194.43 C 941.13 193.47 949.06 191.14 956.99 190.29 Z"/>
<path d="M 964.51 202.83 C 972.86 201.97 972.86 202.37 977.04 203.54 C 981.21 204.72 985.80 206.95 989.56 209.90 C 993.32 212.84 996.66 216.74 999.58 221.21 C 1002.51 225.68 1005.22 231.41 1007.10 236.74 C 1008.98 242.07 1008.81 238.76 1010.88 253.20 C 1012.94 267.65 1016.01 300.84 1019.49 323.40 C 1022.98 345.96 1029.43 373.54 1031.79 388.58 C 1034.15 403.62 1033.68 406.13 1033.64 413.65 C 1033.59 421.17 1032.64 427.44 1031.54 433.70 C 1030.43 439.97 1031.30 440.39 1027.02 451.25 C 1022.73 462.12 1013.39 484.68 1005.82 498.89 C 998.26 513.09 988.10 527.44 981.63 536.49 C 975.16 545.54 971.96 548.25 967.01 553.17 C 962.07 558.09 964.93 558.69 951.98 565.99 C 939.04 573.30 911.48 587.86 889.35 596.98 C 867.22 606.10 834.66 615.09 819.21 620.72 C 803.76 626.35 803.39 626.84 796.66 630.77 C 789.93 634.69 786.37 636.61 778.85 644.29 C 771.34 651.97 758.20 669.97 751.57 676.86 C 744.93 683.76 742.80 683.53 739.04 685.66 C 735.28 687.79 735.28 688.90 729.02 689.65 C 722.76 690.40 721.50 692.98 701.46 690.14 C 681.42 687.29 627.56 675.34 608.77 672.56 C 589.98 669.77 598.33 672.13 588.73 673.41 C 579.12 674.69 568.72 675.46 551.15 680.22 C 533.58 684.98 503.35 694.90 483.30 701.95 C 463.26 709.00 445.48 717.97 430.90 722.55 C 416.32 727.12 404.18 727.41 395.82 729.41 C 387.47 731.42 391.03 729.95 380.79 734.56 C 370.56 739.18 356.54 743.89 334.41 757.10 C 312.28 770.31 264.92 803.38 248.02 813.81 C 231.11 824.24 238.83 817.99 232.99 819.67 C 227.14 821.35 219.21 823.09 212.94 823.89 C 206.68 824.69 200.42 824.98 195.41 824.47 C 190.40 823.97 191.23 825.25 182.88 820.84 C 174.53 816.44 153.63 804.06 145.30 798.04 C 136.98 792.01 136.42 789.83 132.94 784.68 C 129.46 779.53 126.49 773.40 124.43 767.13 C 122.37 760.86 121.69 761.70 120.59 747.08 C 119.50 732.45 118.22 699.03 117.86 679.39 C 117.50 659.75 115.65 651.81 118.43 629.25 C 121.20 606.69 131.79 569.92 134.53 544.01 C 137.26 518.11 133.62 488.44 134.85 473.82 C 136.08 459.19 138.89 461.13 141.88 456.27 C 144.88 451.40 144.32 449.23 152.82 444.63 C 161.32 440.02 178.71 432.78 192.90 428.64 C 207.10 424.51 221.71 423.62 238.00 419.82 C 254.28 416.02 278.91 409.44 290.61 405.84 C 302.30 402.24 297.70 403.75 308.14 398.22 C 318.58 392.69 340.29 379.39 353.24 372.66 C 366.18 365.93 373.28 363.07 385.80 357.86 C 398.33 352.64 415.03 345.75 428.39 341.37 C 441.75 337.00 455.11 333.92 465.97 331.61 C 476.83 329.30 485.18 328.10 493.53 327.51 C 501.88 326.93 505.64 327.16 516.08 328.09 C 526.51 329.02 537.79 329.57 556.16 333.09 C 574.53 336.61 612.11 346.35 626.30 349.19 C 640.50 352.03 636.33 350.40 641.34 350.12 C 646.35 349.84 643.42 351.59 656.37 347.52 C 669.31 343.45 704.38 331.53 719.00 325.68 C 733.61 319.83 737.37 316.85 744.05 312.42 C 750.73 307.98 749.48 309.44 759.08 299.06 C 768.68 288.68 789.83 262.40 801.67 250.16 C 813.51 237.92 822.59 231.46 830.11 225.63 C 837.62 219.80 840.23 217.87 846.76 215.17 C 853.30 212.46 855.95 210.46 869.31 209.38 C 882.67 208.30 911.06 209.79 926.93 208.70 C 942.80 207.61 956.16 203.69 964.51 202.83 Z"/>
<path d="M 959.50 215.29 C 967.43 214.22 970.35 214.33 974.53 214.93 C 978.71 215.53 981.21 216.64 984.55 218.90 C 987.89 221.16 991.65 224.47 994.57 228.51 C 997.49 232.56 996.63 216.92 1002.08 243.18 C 1007.54 269.44 1022.77 358.08 1027.28 386.07 C 1031.78 414.07 1029.74 401.11 1029.12 411.14 C 1028.50 421.17 1027.74 432.87 1023.53 446.24 C 1019.32 459.61 1011.19 477.56 1003.86 491.36 C 996.53 505.17 988.19 518.29 979.54 529.07 C 970.89 539.86 967.43 546.37 951.98 556.06 C 936.53 565.75 908.14 579.17 886.85 587.20 C 865.55 595.23 839.25 599.57 824.22 604.24 C 809.19 608.91 804.59 610.95 796.66 615.21 C 788.73 619.46 785.39 621.39 776.62 629.79 C 767.85 638.18 753.24 657.67 744.05 665.57 C 734.86 673.47 729.44 675.10 721.50 677.20 C 713.57 679.30 715.66 681.39 696.45 678.18 C 677.24 674.96 625.89 661.85 606.26 657.90 C 586.64 653.94 585.80 654.87 578.71 654.47 C 571.61 654.06 571.61 653.89 563.67 655.46 C 555.74 657.03 542.38 659.90 531.11 663.88 C 519.83 667.86 509.81 674.33 496.03 679.35 C 482.25 684.38 461.38 689.12 448.43 694.03 C 435.49 698.94 430.06 704.29 418.37 708.81 C 406.68 713.33 393.45 714.36 378.29 721.15 C 363.12 727.95 347.85 737.38 327.39 749.58 C 306.93 761.78 272.10 784.83 255.53 794.36 C 238.96 803.89 236.33 803.99 227.97 806.76 C 219.62 809.53 212.11 810.64 205.43 810.97 C 198.75 811.31 196.51 812.30 187.89 808.75 C 179.28 805.20 161.94 795.38 153.74 789.69 C 145.54 784.01 142.54 780.08 138.68 774.65 C 134.82 769.22 132.74 764.62 130.60 757.10 C 128.46 749.58 127.21 742.90 125.85 729.53 C 124.49 716.16 122.98 693.59 122.43 676.88 C 121.88 660.17 119.93 650.97 122.56 629.25 C 125.18 607.52 135.11 571.17 138.19 546.52 C 141.26 521.87 139.57 494.71 141.01 481.34 C 142.44 467.97 143.91 470.89 146.80 466.30 C 149.70 461.70 151.13 458.20 158.39 453.76 C 165.66 449.33 177.13 443.79 190.40 439.69 C 203.66 435.58 219.33 433.90 238.00 429.14 C 256.66 424.39 276.50 420.91 302.39 411.14 C 328.28 401.38 367.73 381.37 393.32 370.54 C 418.91 359.71 441.75 351.25 455.95 346.16 C 470.15 341.07 470.15 341.45 478.50 340.02 C 486.85 338.59 495.20 337.47 506.05 337.59 C 516.91 337.70 525.89 337.22 543.63 340.71 C 561.38 344.19 596.25 354.68 612.54 358.50 C 628.82 362.31 634.03 362.95 641.34 363.61 C 648.64 364.27 648.43 364.13 656.37 362.45 C 664.30 360.77 675.99 357.80 688.94 353.52 C 701.88 349.23 722.76 341.78 734.03 336.75 C 745.30 331.73 750.71 327.68 756.58 323.37 C 762.44 319.06 760.74 321.30 769.23 310.86 C 777.72 300.42 797.20 272.84 807.51 260.72 C 817.82 248.61 824.98 243.47 831.10 238.16 C 837.23 232.85 838.73 231.42 844.26 228.88 C 849.79 226.33 850.52 224.15 864.30 222.90 C 878.08 221.65 911.06 222.63 926.93 221.37 C 942.80 220.10 951.57 216.37 959.50 215.29 Z"/>
<path d="M 954.49 227.84 C 962.00 226.67 965.34 226.14 969.52 226.25 C 973.70 226.35 976.20 226.76 979.54 228.46 C 982.88 230.16 986.77 233.16 989.56 236.44 C 992.35 239.73 990.86 224.50 996.30 248.19 C 1001.74 271.87 1017.41 352.23 1022.20 378.55 C 1026.98 404.87 1025.31 395.68 1024.99 406.13 C 1024.67 416.57 1023.83 428.69 1020.27 441.23 C 1016.71 453.76 1010.41 468.28 1003.62 481.34 C 996.83 494.39 988.15 508.71 979.54 519.56 C 970.93 530.42 959.92 540.19 951.98 546.49 C 944.05 552.79 943.63 551.98 931.94 557.37 C 920.25 562.76 901.04 573.16 881.84 578.84 C 862.63 584.52 831.32 587.90 816.70 591.43 C 802.09 594.95 800.84 596.52 794.15 599.98 C 787.47 603.44 785.80 603.17 776.62 612.18 C 767.43 621.19 749.06 645.08 739.04 654.06 C 729.02 663.04 722.34 663.74 716.49 666.07 C 710.65 668.41 708.14 667.90 703.97 668.06 C 699.79 668.23 711.48 671.91 691.44 667.06 C 671.40 662.22 604.18 643.99 583.72 638.98 C 563.26 633.97 573.28 637.12 568.68 636.99 C 564.09 636.86 562.84 636.77 556.16 638.18 C 549.48 639.59 540.29 640.96 528.60 645.46 C 516.91 649.96 500.21 659.92 486.01 665.20 C 471.82 670.48 455.81 671.85 443.42 677.14 C 431.04 682.43 423.68 691.13 411.69 696.94 C 399.71 702.74 394.21 699.39 371.52 711.98 C 348.84 724.57 299.08 759.00 275.57 772.49 C 252.07 785.98 242.17 788.69 230.48 792.90 C 218.79 797.11 212.53 797.34 205.43 797.75 C 198.33 798.16 195.79 798.38 187.89 795.37 C 179.99 792.35 165.40 784.79 158.02 779.67 C 150.64 774.54 147.26 770.06 143.62 764.62 C 139.98 759.19 138.40 755.43 136.15 747.08 C 133.91 738.72 131.72 726.60 130.14 714.48 C 128.57 702.37 127.28 689.00 126.70 674.37 C 126.12 659.75 124.23 647.21 126.66 626.74 C 129.10 606.27 137.90 574.93 141.33 551.53 C 144.76 528.13 145.09 499.72 147.26 486.35 C 149.44 472.98 151.36 475.53 154.37 471.31 C 157.39 467.08 158.51 464.92 165.34 461.00 C 172.18 457.08 166.60 456.06 195.41 447.79 C 224.22 439.53 293.11 426.89 338.20 411.43 C 383.30 395.97 440.92 365.49 465.97 355.03 C 491.02 344.58 480.58 350.03 488.52 348.71 C 496.45 347.38 503.97 346.84 513.57 347.09 C 523.17 347.34 524.01 345.42 546.14 350.20 C 568.27 354.98 626.72 371.57 646.35 375.78 C 665.97 380.00 655.53 376.49 663.88 375.48 C 672.23 374.47 682.67 373.79 696.45 369.71 C 710.23 365.62 736.05 355.34 746.56 350.96 C 757.06 346.58 753.99 348.47 759.47 343.45 C 764.96 338.44 770.41 333.01 779.48 320.89 C 788.55 308.77 805.19 282.16 813.90 270.75 C 822.61 259.34 826.26 257.32 831.73 252.42 C 837.21 247.53 841.34 244.07 846.76 241.38 C 852.19 238.70 851.36 237.67 864.30 236.31 C 877.24 234.96 909.39 234.67 924.43 233.26 C 939.46 231.85 946.97 229.00 954.49 227.84 Z"/>
<path d="M 949.48 240.54 C 966.18 238.41 962.42 238.65 967.01 238.63 C 971.61 238.62 974.11 239.25 977.04 240.44 C 979.96 241.64 982.05 242.82 984.55 245.78 C 987.05 248.74 986.54 236.92 992.06 258.22 C 997.57 279.51 1012.80 349.30 1017.63 373.54 C 1022.47 397.77 1021.23 392.76 1021.04 403.62 C 1020.86 414.48 1019.87 426.60 1016.53 438.72 C 1013.20 450.84 1007.62 463.87 1001.04 476.32 C 994.46 488.78 985.63 503.06 977.04 513.47 C 968.44 523.87 958.66 532.25 949.48 538.75 C 940.29 545.24 933.61 547.36 921.92 552.46 C 910.23 557.57 897.70 564.98 879.33 569.37 C 860.96 573.76 826.72 576.02 811.69 578.81 C 796.66 581.60 796.24 582.45 789.14 586.12 C 782.05 589.79 777.95 591.55 769.10 600.83 C 760.25 610.10 743.56 633.51 736.05 641.78 C 728.53 650.05 728.10 648.15 724.01 650.46 C 719.91 652.76 716.08 654.47 711.48 655.62 C 706.89 656.76 701.46 657.45 696.45 657.32 C 691.44 657.19 701.46 660.49 681.42 654.85 C 661.38 649.21 596.66 628.96 576.20 623.46 C 555.74 617.96 564.93 621.81 558.66 621.86 C 552.40 621.90 547.81 621.54 538.62 623.70 C 529.44 625.87 520.25 628.32 503.55 634.87 C 486.85 641.42 454.28 654.77 438.41 663.00 C 422.55 671.23 419.62 677.90 408.35 684.24 C 397.08 690.58 392.48 688.15 370.77 701.03 C 349.06 713.90 298.12 749.16 278.08 761.49 C 258.04 773.83 260.96 771.36 250.52 775.03 C 240.08 778.70 225.05 782.07 215.45 783.51 C 205.85 784.95 200.84 785.32 192.90 783.67 C 184.97 782.02 173.70 776.50 167.85 773.61 C 162.00 770.72 160.82 769.10 157.83 766.34 C 154.83 763.59 152.65 761.99 149.88 757.10 C 147.11 752.22 143.87 746.24 141.21 737.05 C 138.54 727.86 135.66 713.23 133.91 701.95 C 132.15 690.67 131.25 681.89 130.68 669.36 C 130.12 656.82 128.26 645.54 130.53 626.74 C 132.80 607.94 140.67 578.69 144.31 556.55 C 147.95 534.40 149.78 506.82 152.36 493.87 C 154.93 480.92 156.32 483.22 159.74 478.83 C 163.16 474.44 166.92 471.13 172.86 467.51 C 178.80 463.89 180.79 461.78 195.41 457.12 C 210.02 452.47 233.94 445.59 260.54 439.59 C 287.15 433.60 328.73 428.96 355.04 421.17 C 381.34 413.38 398.63 402.23 418.37 392.84 C 438.11 383.46 460.13 370.77 473.49 364.85 C 486.85 358.94 490.61 358.83 498.54 357.37 C 506.47 355.91 512.73 355.75 521.09 356.10 C 529.44 356.45 526.10 353.93 548.64 359.48 C 571.19 365.02 633.82 384.33 656.37 389.37 C 678.91 394.42 673.07 390.42 683.92 389.74 C 694.78 389.07 708.98 388.58 721.50 385.33 C 734.03 382.07 751.13 373.85 759.08 370.21 C 767.03 366.58 763.04 371.31 769.20 363.51 C 775.36 355.71 788.00 336.35 796.05 323.40 C 804.09 310.45 811.94 294.41 817.47 285.79 C 823.00 277.18 824.76 276.12 829.23 271.71 C 833.69 267.30 838.00 262.71 844.26 259.33 C 850.52 255.96 849.27 254.58 866.81 251.45 C 884.34 248.32 932.78 242.68 949.48 240.54 Z"/>
<path d="M 946.97 253.11 C 963.67 250.05 957.62 251.62 962.00 251.64 C 966.39 251.65 970.13 252.11 973.29 253.20 C 976.45 254.30 978.66 255.86 980.96 258.22 C 983.25 260.58 984.69 261.94 987.06 267.37 C 989.43 272.80 992.26 280.49 995.18 290.81 C 998.10 301.13 1001.28 314.65 1004.59 329.28 C 1007.90 343.90 1012.94 366.16 1015.04 378.55 C 1017.15 390.94 1017.69 393.59 1017.23 403.62 C 1016.76 413.65 1015.62 426.95 1012.26 438.72 C 1008.90 450.48 1003.37 462.76 997.08 474.22 C 990.79 485.67 982.88 498.00 974.53 507.46 C 966.18 516.92 957.41 524.33 946.97 531.00 C 936.53 537.67 922.76 542.95 911.90 547.48 C 901.04 552.02 899.37 555.02 881.84 558.19 C 864.30 561.36 822.96 564.08 806.68 566.49 C 790.40 568.90 791.65 568.82 784.13 572.64 C 776.62 576.45 770.43 579.51 761.59 589.36 C 752.74 599.22 737.74 623.46 731.06 631.75 C 724.38 640.05 725.18 637.00 721.50 639.16 C 717.82 641.32 713.99 643.48 708.98 644.72 C 703.97 645.95 698.12 646.97 691.44 646.56 C 684.76 646.15 688.10 648.23 668.89 642.27 C 649.69 636.31 598.33 617.15 576.20 610.81 C 554.07 604.48 546.14 605.27 536.12 604.25 C 526.10 603.23 524.43 602.95 516.08 604.68 C 507.72 606.40 500.63 606.58 486.01 614.61 C 471.40 622.65 442.62 642.92 428.39 652.88 C 414.17 662.84 410.68 667.85 400.66 674.37 C 390.64 680.90 381.60 683.37 368.27 692.02 C 354.93 700.67 339.04 714.49 320.67 726.27 C 302.30 738.05 273.07 755.55 258.04 762.70 C 243.01 769.86 241.34 767.86 230.48 769.18 C 219.62 770.50 202.92 771.76 192.90 770.61 C 182.88 769.46 176.71 766.21 170.35 762.29 C 164.00 758.36 158.97 753.25 154.80 747.08 C 150.62 740.90 148.21 734.40 145.30 725.21 C 142.40 716.02 139.19 702.48 137.38 691.92 C 135.57 681.36 134.90 673.12 134.43 661.84 C 133.97 650.56 132.41 641.36 134.61 624.23 C 136.82 607.10 144.10 579.11 147.67 559.05 C 151.24 539.00 153.52 515.65 156.05 503.90 C 158.58 492.15 159.20 493.30 162.84 488.53 C 166.48 483.75 171.61 479.22 177.87 475.24 C 184.13 471.27 185.80 469.49 200.42 464.69 C 215.03 459.90 248.02 450.63 265.55 446.47 C 283.09 442.31 291.02 441.33 305.64 439.73 C 320.25 438.12 342.38 437.98 353.24 436.84 C 364.09 435.69 359.50 437.36 370.77 432.84 C 382.05 428.33 402.07 419.65 420.88 409.76 C 439.69 399.88 468.59 380.96 483.62 373.54 C 498.65 366.12 503.15 366.61 511.06 365.23 C 518.98 363.86 524.01 364.63 531.11 365.27 C 538.20 365.91 541.13 365.88 553.65 369.08 C 566.18 372.28 589.98 379.17 606.26 384.48 C 622.55 389.79 636.74 397.01 651.36 400.95 C 665.97 404.90 683.09 405.57 693.95 408.14 C 704.80 410.70 711.48 415.05 716.49 416.35 C 721.50 417.65 719.42 417.78 724.01 415.94 C 728.60 414.10 736.12 410.53 744.05 405.32 C 751.98 400.11 765.11 389.99 771.61 384.69 C 778.11 379.40 776.78 382.05 783.04 373.54 C 789.31 365.03 801.83 346.58 809.19 333.63 C 816.54 320.68 821.52 305.05 827.17 295.82 C 832.83 286.60 837.35 282.58 843.12 278.27 C 848.89 273.97 844.49 274.19 861.80 270.00 C 879.10 265.81 930.27 256.17 946.97 253.11 Z"/>
<path d="M 954.49 265.53 C 971.61 261.83 963.67 265.70 967.01 266.34 C 970.35 266.99 972.03 267.56 974.53 269.38 C 977.04 271.21 979.66 273.71 982.05 277.28 C 984.43 280.85 986.32 284.32 988.82 290.81 C 991.33 297.29 993.61 303.19 997.08 316.18 C 1000.54 329.17 1006.88 353.77 1009.60 368.76 C 1012.32 383.75 1013.65 394.47 1013.39 406.13 C 1013.13 417.79 1011.60 427.42 1008.04 438.72 C 1004.49 450.01 998.07 463.46 992.07 473.90 C 986.06 484.35 979.96 493.18 972.03 501.41 C 964.09 509.64 954.91 516.95 944.47 523.26 C 934.03 529.57 919.42 535.24 909.39 539.25 C 899.37 543.25 897.29 545.12 884.34 547.28 C 871.40 549.44 846.76 551.26 831.73 552.20 C 816.70 553.15 803.34 552.07 794.15 552.95 C 784.97 553.83 781.63 555.34 776.62 557.49 C 771.61 559.64 767.85 562.67 764.09 565.85 C 760.33 569.03 760.75 566.87 754.07 576.55 C 747.39 586.24 730.90 614.76 724.01 623.96 C 717.11 633.16 716.88 629.76 712.70 631.75 C 708.52 633.75 704.17 635.25 698.96 635.90 C 693.74 636.55 688.94 636.76 681.42 635.64 C 673.90 634.53 669.31 634.60 653.86 629.19 C 638.41 623.78 610.86 611.05 588.73 603.18 C 566.60 595.30 535.70 585.87 521.09 581.94 C 506.47 578.01 508.14 579.55 501.04 579.59 C 493.95 579.64 483.92 580.92 478.50 582.20 C 473.07 583.47 473.54 581.47 468.48 587.23 C 463.41 592.98 459.83 604.28 448.13 616.71 C 436.42 629.15 412.79 650.09 398.23 661.84 C 383.67 673.58 373.68 677.78 360.75 687.18 C 347.82 696.57 336.53 707.75 320.67 718.21 C 304.80 728.68 279.33 743.42 265.55 750.00 C 251.77 756.57 249.69 756.38 238.00 757.68 C 226.30 758.98 206.26 759.15 195.41 757.78 C 184.55 756.41 179.12 753.56 172.86 749.46 C 166.60 745.35 162.00 739.66 157.83 733.17 C 153.65 726.68 150.62 718.66 147.81 710.53 C 145.00 702.40 142.59 693.77 140.99 684.40 C 139.39 675.03 138.57 664.76 138.21 654.32 C 137.85 643.87 135.13 645.82 138.82 621.73 C 142.51 597.64 155.35 531.08 160.33 509.77 C 165.32 488.46 164.55 498.68 168.73 493.87 C 172.90 489.06 176.35 485.56 185.39 480.92 C 194.43 476.29 207.52 470.82 222.96 466.05 C 238.41 461.29 263.05 455.17 278.08 452.34 C 293.11 449.51 297.70 449.07 313.15 449.07 C 328.60 449.08 357.41 452.30 370.77 452.38 C 384.13 452.46 386.22 451.62 393.32 449.56 C 400.42 447.50 404.24 446.43 413.36 440.03 C 422.48 433.63 435.50 420.39 448.03 411.14 C 460.56 401.89 478.85 390.35 488.52 384.54 C 498.19 378.72 500.63 378.08 506.05 376.27 C 511.48 374.46 513.15 373.52 521.09 373.68 C 529.02 373.84 540.35 374.31 553.65 377.21 C 566.96 380.12 580.10 383.34 600.91 391.09 C 621.72 398.83 660.91 414.73 678.50 423.68 C 696.10 432.63 700.56 440.92 706.47 444.80 C 712.39 448.68 711.06 446.75 713.99 446.96 C 716.91 447.17 720.25 447.35 724.01 446.06 C 727.77 444.76 731.52 442.80 736.53 439.19 C 741.54 435.58 744.13 434.51 754.07 424.41 C 764.01 414.30 785.38 391.21 796.16 378.55 C 806.95 365.89 811.16 360.58 818.79 348.47 C 826.42 336.35 836.44 314.85 841.93 305.85 C 847.43 296.85 848.05 297.34 851.77 294.45 C 855.50 291.56 847.18 293.34 864.30 288.52 C 881.42 283.70 937.37 269.22 954.49 265.53 Z"/>
<path d="M 956.99 280.72 C 962.42 280.77 967.43 281.24 972.03 284.18 C 976.62 287.11 980.38 290.17 984.55 298.33 C 988.73 306.49 993.06 318.92 997.08 333.12 C 1001.09 347.33 1006.60 370.98 1008.66 383.57 C 1010.72 396.15 1009.99 400.28 1009.43 408.64 C 1008.87 416.99 1007.45 425.77 1005.31 433.70 C 1003.16 441.64 1000.42 448.46 996.54 456.27 C 992.66 464.07 986.97 473.64 982.05 480.52 C 977.13 487.40 973.28 491.94 967.01 497.53 C 960.75 503.13 954.49 508.56 944.47 514.07 C 934.45 519.58 916.49 526.82 906.89 530.60 C 897.29 534.37 896.87 534.95 886.85 536.71 C 876.83 538.47 857.62 540.42 846.76 541.18 C 835.91 541.94 829.65 542.02 821.71 541.28 C 813.78 540.53 807.93 539.40 799.16 536.71 C 790.40 534.03 775.78 527.01 769.10 525.18 C 762.42 523.35 762.00 524.00 759.08 525.75 C 756.16 527.49 757.16 522.57 751.57 535.64 C 745.97 548.71 731.35 590.71 725.50 604.18 C 719.66 617.64 719.66 613.32 716.49 616.43 C 713.32 619.55 711.48 621.21 706.47 622.87 C 701.46 624.54 694.36 626.57 686.43 626.42 C 678.50 626.26 668.48 624.39 658.87 621.96 C 649.27 619.52 640.08 616.42 628.81 611.82 C 617.54 607.22 603.34 599.24 591.23 594.36 C 579.12 589.48 571.88 589.67 556.16 582.53 C 540.44 575.39 513.26 561.71 496.90 551.53 C 480.55 541.35 466.24 528.55 458.04 521.45 C 449.84 514.35 450.24 513.93 447.72 508.91 C 445.21 503.90 444.04 498.47 442.97 491.36 C 441.89 484.26 441.23 473.40 441.28 466.30 C 441.33 459.19 441.93 454.18 443.26 448.75 C 444.59 443.31 446.11 438.72 449.27 433.70 C 452.42 428.69 455.00 424.93 462.19 418.66 C 469.38 412.40 484.66 401.41 492.39 396.10 C 500.12 390.79 503.36 388.96 508.56 386.78 C 513.76 384.61 515.66 383.21 523.59 383.05 C 531.52 382.88 543.63 383.20 556.16 385.79 C 568.68 388.39 580.15 390.24 598.75 398.64 C 617.34 407.04 651.43 425.62 667.71 436.21 C 684.00 446.81 689.57 456.47 696.45 462.21 C 703.33 467.95 703.97 468.32 708.98 470.66 C 713.99 473.00 721.09 475.62 726.51 476.27 C 731.94 476.92 737.54 476.21 741.54 474.55 C 745.55 472.88 747.09 471.43 750.57 466.30 C 754.04 461.16 756.61 453.34 762.39 443.73 C 768.17 434.12 768.26 429.46 785.25 408.64 C 802.23 387.81 848.83 335.51 864.30 318.80 C 879.77 302.09 873.26 311.35 878.06 308.36 C 882.87 305.36 882.88 304.92 893.12 300.84 C 903.35 296.75 928.81 287.21 939.46 283.86 C 950.10 280.51 951.57 280.67 956.99 280.72 Z"/>
<path d="M 275.57 461.14 C 288.28 459.06 297.70 458.76 308.14 458.82 C 318.58 458.89 327.77 459.50 338.20 461.51 C 348.64 463.52 361.69 467.14 370.77 470.87 C 379.86 474.59 384.69 475.83 392.71 483.84 C 400.72 491.86 413.20 510.58 418.86 518.94 C 424.52 527.30 424.09 523.12 426.68 533.98 C 429.26 544.85 433.33 572.84 434.37 584.12 C 435.41 595.40 434.79 595.82 432.91 601.67 C 431.03 607.52 429.71 610.86 423.09 619.22 C 416.47 627.58 408.96 637.60 393.20 651.81 C 377.44 666.02 343.03 693.18 328.53 704.46 C 314.04 715.74 315.90 713.81 306.24 719.50 C 296.58 725.18 279.85 734.25 270.56 738.56 C 261.28 742.88 258.87 743.87 250.52 745.41 C 242.17 746.94 229.65 747.96 220.46 747.75 C 211.27 747.54 202.92 746.25 195.41 744.13 C 187.89 742.00 180.79 738.60 175.37 735.01 C 169.94 731.41 167.01 728.65 162.84 722.57 C 158.66 716.50 153.43 706.60 150.31 698.57 C 147.20 690.54 145.53 683.42 144.17 674.37 C 142.80 665.33 142.30 653.48 142.14 644.29 C 141.98 635.10 139.81 639.69 143.21 619.22 C 146.61 598.75 157.58 541.13 162.52 521.45 C 167.46 501.77 167.38 507.22 172.86 501.12 C 178.34 495.02 185.57 489.82 195.41 484.86 C 205.24 479.89 218.52 475.26 231.88 471.31 C 245.24 467.36 262.86 463.22 275.57 461.14 Z"/>
<path d="M 946.97 297.83 C 956.58 294.06 953.65 296.29 956.99 296.23 C 960.33 296.17 963.26 295.81 967.01 297.47 C 970.77 299.14 975.78 301.47 979.54 306.21 C 983.30 310.95 985.73 315.10 989.60 325.91 C 993.46 336.71 1000.03 359.33 1002.73 371.03 C 1005.44 382.73 1005.68 387.33 1005.81 396.10 C 1005.94 404.87 1004.97 415.58 1003.51 423.68 C 1002.06 431.78 1000.24 437.34 997.08 444.71 C 993.92 452.08 989.14 460.95 984.55 467.90 C 979.96 474.85 975.78 480.50 969.52 486.40 C 963.26 492.30 953.24 499.21 946.97 503.31 C 940.71 507.41 940.71 507.43 931.94 510.97 C 923.17 514.52 910.23 521.08 894.36 524.60 C 878.50 528.11 849.69 531.33 836.74 532.08 C 823.80 532.84 822.75 530.89 816.70 529.12 C 810.65 527.35 806.42 526.07 800.43 521.45 C 794.43 516.83 784.91 506.41 780.73 501.39 C 776.54 496.38 776.67 495.13 775.31 491.36 C 773.95 487.60 772.48 485.52 772.59 478.83 C 772.70 472.14 772.80 461.13 775.98 451.25 C 779.16 441.38 779.85 434.57 791.65 419.56 C 803.45 404.56 830.90 376.66 846.76 361.22 C 862.63 345.78 878.08 333.97 886.85 326.91 C 895.62 319.84 889.35 323.68 899.37 318.83 C 909.39 313.98 937.37 301.60 946.97 297.83 Z"/>
<path d="M 523.59 393.29 C 529.44 391.86 534.45 391.74 541.13 392.13 C 547.81 392.51 555.74 393.79 563.67 395.61 C 571.61 397.43 580.92 400.04 588.73 403.05 C 596.54 406.05 597.69 405.61 610.53 413.65 C 623.36 421.68 649.77 437.47 665.74 451.25 C 681.71 465.04 697.02 485.10 706.32 496.38 C 715.63 507.66 718.30 511.84 721.57 518.94 C 724.85 526.04 725.34 531.48 725.98 539.00 C 726.61 546.52 725.97 556.96 725.40 564.07 C 724.83 571.17 724.03 575.93 722.55 581.62 C 721.06 587.30 718.75 593.75 716.49 598.15 C 714.23 602.56 712.32 605.28 708.98 608.04 C 705.64 610.80 701.46 613.33 696.45 614.70 C 691.44 616.08 685.18 616.54 678.91 616.30 C 672.65 616.05 666.39 615.07 658.87 613.25 C 651.36 611.44 653.03 613.40 633.82 605.43 C 614.61 597.46 565.26 576.49 543.63 565.41 C 522.01 554.34 514.44 546.74 504.08 539.00 C 493.72 531.25 487.22 525.21 481.47 518.94 C 475.72 512.67 472.64 507.24 469.56 501.39 C 466.47 495.54 464.47 490.53 462.99 483.84 C 461.51 477.16 460.59 467.97 460.67 461.28 C 460.75 454.60 461.86 448.75 463.47 443.73 C 465.08 438.72 466.69 435.79 470.32 431.20 C 473.96 426.60 479.30 421.24 485.26 416.16 C 491.21 411.07 499.67 404.51 506.05 400.70 C 512.44 396.89 517.75 394.72 523.59 393.29 Z"/>
<path d="M 285.59 468.58 C 298.43 467.09 305.43 467.80 315.03 468.80 C 324.64 469.80 334.76 472.09 343.22 474.59 C 351.67 477.10 359.40 480.21 365.76 483.84 C 372.12 487.47 376.05 490.53 381.38 496.38 C 386.70 502.23 393.25 511.42 397.70 518.94 C 402.14 526.46 405.04 530.22 408.05 541.50 C 411.07 552.79 414.73 576.18 415.77 586.63 C 416.81 597.08 415.93 598.75 414.29 604.18 C 412.65 609.61 410.68 612.53 405.92 619.22 C 401.16 625.91 398.66 631.46 385.70 644.29 C 372.75 657.12 341.11 685.18 328.18 696.22 C 315.26 707.26 316.49 705.48 308.14 710.55 C 299.79 715.62 286.85 722.63 278.08 726.63 C 269.31 730.63 263.88 732.77 255.53 734.54 C 247.18 736.32 236.33 737.39 227.97 737.29 C 219.62 737.18 212.94 736.11 205.43 733.89 C 197.91 731.67 189.14 727.49 182.88 723.96 C 176.62 720.43 172.40 717.64 167.85 712.72 C 163.29 707.80 158.67 700.82 155.55 694.43 C 152.44 688.04 150.64 682.31 149.16 674.37 C 147.68 666.43 146.91 656.30 146.69 646.80 C 146.46 637.29 144.59 636.98 147.81 617.34 C 151.03 597.70 161.21 547.04 166.01 528.97 C 170.82 510.90 170.87 515.18 176.62 508.91 C 182.37 502.65 190.28 496.56 200.51 491.36 C 210.74 486.17 223.82 481.55 238.00 477.75 C 252.18 473.95 272.76 470.07 285.59 468.58 Z"/>
<path d="M 954.49 312.80 C 966.30 308.31 965.34 312.45 969.52 314.00 C 973.70 315.56 976.20 317.47 979.54 322.12 C 982.88 326.77 986.12 332.50 989.56 341.90 C 993.01 351.31 998.18 368.68 1000.21 378.55 C 1002.24 388.42 1002.00 393.18 1001.74 401.11 C 1001.48 409.05 1000.37 418.66 998.66 426.18 C 996.94 433.70 994.63 439.64 991.44 446.24 C 988.26 452.83 984.03 459.82 979.54 465.75 C 975.05 471.68 970.77 476.62 964.51 481.82 C 958.25 487.02 954.49 491.39 941.96 496.93 C 929.44 502.47 906.47 510.82 889.35 515.07 C 872.23 519.32 850.52 521.76 839.25 522.42 C 827.97 523.08 826.72 520.74 821.71 519.03 C 816.70 517.32 813.85 516.35 809.19 512.16 C 804.52 507.97 797.46 500.68 793.73 493.87 C 790.00 487.06 787.46 478.83 786.79 471.31 C 786.13 463.79 787.13 456.69 789.75 448.75 C 792.38 440.81 791.79 435.98 802.55 423.68 C 813.30 411.37 838.26 388.69 854.28 374.90 C 870.30 361.12 881.97 351.30 898.67 340.95 C 915.37 330.60 942.68 317.29 954.49 312.80 Z"/>
<path d="M 526.10 403.55 C 530.69 402.03 534.03 401.72 538.62 401.53 C 543.22 401.34 545.30 400.68 553.65 402.40 C 562.00 404.12 576.62 406.57 588.73 411.86 C 600.84 417.14 614.11 425.46 626.30 434.11 C 638.50 442.77 650.52 451.74 661.92 463.79 C 673.31 475.84 686.91 494.71 694.68 506.41 C 702.44 518.11 705.59 526.04 708.50 533.98 C 711.42 541.92 711.53 547.35 712.14 554.04 C 712.75 560.72 712.84 568.25 712.16 574.09 C 711.47 579.94 709.83 585.11 708.04 589.14 C 706.26 593.16 704.36 595.73 701.46 598.23 C 698.56 600.74 695.24 602.86 690.64 604.18 C 686.05 605.49 680.03 606.26 673.90 606.13 C 667.77 606.01 660.96 605.07 653.86 603.42 C 646.76 601.78 648.85 603.82 631.32 596.27 C 613.78 588.72 567.50 568.08 548.64 558.12 C 529.78 548.15 527.08 543.44 518.16 536.49 C 509.24 529.54 500.70 522.28 495.12 516.43 C 489.55 510.58 487.33 506.41 484.71 501.39 C 482.10 496.38 480.72 492.20 479.46 486.35 C 478.20 480.50 477.30 472.56 477.18 466.30 C 477.07 460.03 477.59 453.76 478.78 448.75 C 479.96 443.73 481.63 440.39 484.29 436.21 C 486.95 432.03 490.26 427.94 494.72 423.68 C 499.19 419.42 505.84 414.01 511.06 410.66 C 516.29 407.30 521.50 405.08 526.10 403.55 Z"/>
<path d="M 275.57 478.81 C 286.85 477.06 292.69 476.90 300.63 477.18 C 308.56 477.46 314.82 478.49 323.17 480.49 C 331.52 482.48 343.12 485.65 350.73 489.13 C 358.34 492.62 363.24 496.01 368.84 501.39 C 374.44 506.78 379.97 514.35 384.33 521.45 C 388.69 528.55 392.61 536.07 394.99 544.01 C 397.36 551.95 398.03 559.47 398.57 569.08 C 399.12 578.69 399.58 593.31 398.26 601.67 C 396.94 610.03 394.03 613.37 390.67 619.22 C 387.31 625.07 388.01 625.91 378.08 636.77 C 368.15 647.63 341.98 673.96 331.11 684.40 C 320.25 694.85 320.48 694.36 312.90 699.44 C 305.31 704.52 293.90 710.87 285.59 714.89 C 277.29 718.91 270.98 721.54 263.05 723.58 C 255.11 725.62 245.93 726.88 238.00 727.12 C 230.06 727.37 222.13 726.55 215.45 725.05 C 208.77 723.55 205.01 721.70 197.91 718.12 C 190.81 714.55 178.79 707.94 172.86 703.57 C 166.93 699.20 165.33 696.79 162.33 691.92 C 159.32 687.06 156.57 681.06 154.82 674.37 C 153.07 667.69 152.23 661.00 151.83 651.81 C 151.42 642.62 149.72 637.21 152.39 619.22 C 155.06 601.23 163.60 560.38 167.85 543.86 C 172.10 527.34 172.44 527.24 177.87 520.12 C 183.30 512.99 191.23 506.53 200.42 501.13 C 209.60 495.73 220.46 491.43 232.99 487.71 C 245.51 483.99 264.30 480.57 275.57 478.81 Z"/>
<path d="M 962.00 330.79 C 966.60 330.69 971.19 332.19 974.53 334.10 C 977.87 336.01 979.12 337.24 982.05 342.26 C 984.97 347.28 989.60 356.91 992.07 364.21 C 994.53 371.52 996.04 378.67 996.85 386.07 C 997.65 393.48 997.50 401.53 996.90 408.64 C 996.30 415.74 995.10 422.42 993.26 428.69 C 991.41 434.96 988.95 440.63 985.83 446.24 C 982.71 451.85 978.92 457.32 974.53 462.34 C 970.14 467.36 965.76 471.75 959.50 476.37 C 953.24 480.98 949.90 485.07 936.95 490.01 C 924.01 494.95 897.70 502.36 881.84 505.99 C 865.97 509.63 850.66 511.35 841.75 511.83 C 832.85 512.32 832.69 510.65 828.39 508.91 C 824.08 507.17 819.96 505.16 815.92 501.39 C 811.89 497.63 806.98 492.18 804.18 486.33 C 801.37 480.48 799.24 472.98 799.07 466.30 C 798.90 459.61 800.65 452.61 803.17 446.24 C 805.69 439.87 804.43 437.97 814.20 428.07 C 823.97 418.17 845.58 399.69 861.80 386.84 C 878.01 373.99 897.27 359.66 911.46 350.97 C 925.66 342.29 938.55 338.08 946.97 334.72 C 955.40 331.35 957.41 330.89 962.00 330.79 Z"/>
<path d="M 531.11 413.42 C 536.95 412.23 544.47 410.84 553.65 412.01 C 562.84 413.17 574.95 415.48 586.22 420.41 C 597.49 425.35 610.34 433.54 621.29 441.61 C 632.25 449.67 641.62 457.17 651.97 468.80 C 662.31 480.44 676.23 500.14 683.37 511.42 C 690.51 522.70 692.17 529.39 694.80 536.49 C 697.43 543.59 698.25 548.61 699.14 554.04 C 700.03 559.47 700.49 564.48 700.14 569.08 C 699.78 573.68 698.48 578.34 697.03 581.62 C 695.58 584.90 694.04 586.70 691.44 588.76 C 688.84 590.83 685.59 592.79 681.42 594.00 C 677.24 595.20 671.82 596.03 666.39 595.99 C 660.96 595.96 654.70 595.08 648.85 593.76 C 643.01 592.45 647.60 595.39 631.32 588.11 C 615.03 580.82 568.19 559.08 551.15 550.05 C 534.11 541.03 536.51 540.00 529.07 533.98 C 521.63 527.96 511.82 519.36 506.54 513.93 C 501.25 508.50 499.66 505.57 497.34 501.39 C 495.02 497.21 493.71 494.29 492.62 488.86 C 491.52 483.43 490.77 475.07 490.78 468.80 C 490.78 462.53 491.43 456.27 492.65 451.25 C 493.87 446.24 495.82 442.48 498.10 438.72 C 500.39 434.96 502.96 431.95 506.37 428.69 C 509.79 425.43 514.46 421.69 518.58 419.14 C 522.70 416.60 525.26 414.61 531.11 413.42 Z"/>
<path d="M 275.57 488.52 C 286.01 486.97 290.61 486.56 298.12 486.90 C 305.64 487.23 312.73 488.51 320.67 490.53 C 328.60 492.55 338.80 495.53 345.72 499.01 C 352.64 502.50 356.87 505.59 362.16 511.42 C 367.45 517.25 373.79 527.30 377.46 533.98 C 381.12 540.67 382.81 544.43 384.14 551.53 C 385.46 558.64 385.71 567.83 385.39 576.60 C 385.08 585.38 383.97 596.66 382.27 604.18 C 380.58 611.70 378.19 616.30 375.21 621.73 C 372.24 627.16 372.23 627.58 364.45 636.77 C 356.66 645.96 337.49 667.60 328.52 676.88 C 319.56 686.16 317.80 687.53 310.65 692.45 C 303.49 697.37 293.53 702.72 285.59 706.40 C 277.66 710.09 270.56 712.71 263.05 714.53 C 255.53 716.36 247.60 717.20 240.50 717.33 C 233.40 717.47 226.38 716.66 220.46 715.35 C 214.54 714.04 212.48 713.22 204.96 709.47 C 197.45 705.73 181.97 697.46 175.37 692.88 C 168.76 688.30 167.85 685.77 165.34 681.99 C 162.84 678.21 161.66 675.65 160.33 670.21 C 159.01 664.76 157.82 657.84 157.40 649.30 C 156.98 640.77 155.37 635.30 157.83 619.00 C 160.29 602.71 168.13 566.54 172.16 551.53 C 176.20 536.53 176.49 536.08 182.04 528.97 C 187.58 521.86 196.52 514.31 205.43 508.86 C 214.34 503.40 223.80 499.60 235.49 496.21 C 247.18 492.83 265.14 490.07 275.57 488.52 Z"/>
<path d="M 959.50 348.21 C 965.16 347.56 968.68 348.46 972.03 349.56 C 975.37 350.67 977.04 351.86 979.54 354.83 C 982.05 357.81 985.02 362.23 987.06 367.43 C 989.09 372.64 990.90 379.62 991.74 386.07 C 992.57 392.52 992.59 399.44 992.07 406.13 C 991.55 412.81 990.29 420.29 988.62 426.18 C 986.95 432.08 984.81 436.71 982.05 441.49 C 979.28 446.27 977.87 449.24 972.03 454.86 C 966.18 460.48 955.74 470.01 946.97 475.21 C 938.20 480.41 935.28 481.98 919.42 486.06 C 903.55 490.14 865.55 497.82 851.77 499.71 C 838.00 501.59 841.34 499.10 836.74 497.37 C 832.15 495.64 827.56 492.45 824.22 489.33 C 820.88 486.21 818.44 482.92 816.70 478.66 C 814.96 474.41 813.63 468.77 813.76 463.79 C 813.89 458.80 815.14 453.76 817.48 448.75 C 819.82 443.73 819.18 442.16 827.82 433.70 C 836.46 425.24 854.04 409.84 869.31 397.99 C 884.58 386.13 907.95 370.01 919.42 362.59 C 930.88 355.17 931.40 355.88 938.08 353.48 C 944.76 351.09 953.84 348.86 959.50 348.21 Z"/>
<path d="M 538.62 423.39 C 544.47 422.56 553.17 422.21 561.17 423.51 C 569.16 424.81 576.99 426.58 586.59 431.20 C 596.20 435.81 609.01 443.68 618.79 451.20 C 628.56 458.72 636.84 466.70 645.25 476.32 C 653.66 485.94 663.43 499.72 669.24 508.91 C 675.06 518.11 677.32 522.70 680.12 531.48 C 682.93 540.25 685.33 554.87 686.07 561.56 C 686.80 568.25 685.65 568.66 684.56 571.59 C 683.46 574.51 681.83 577.02 679.50 579.11 C 677.17 581.20 674.01 583.00 670.57 584.12 C 667.14 585.25 663.33 585.91 658.87 585.86 C 654.42 585.81 648.85 585.02 643.84 583.81 C 638.83 582.60 638.00 582.41 628.81 578.60 C 619.62 574.80 600.84 566.78 588.73 560.97 C 576.62 555.15 564.98 549.04 556.16 543.70 C 547.34 538.37 542.37 534.35 535.80 528.97 C 529.23 523.59 521.40 516.43 516.75 511.42 C 512.11 506.41 510.10 503.06 507.92 498.89 C 505.74 494.71 504.50 490.95 503.67 486.35 C 502.84 481.75 502.67 476.32 502.94 471.31 C 503.20 466.30 504.23 460.45 505.27 456.27 C 506.30 452.09 507.28 449.58 509.15 446.24 C 511.02 442.90 513.66 439.17 516.48 436.21 C 519.31 433.25 522.41 430.63 526.10 428.49 C 529.79 426.36 532.78 424.22 538.62 423.39 Z"/>
<path d="M 278.08 498.71 C 288.10 497.57 293.11 497.51 300.63 498.15 C 308.14 498.80 316.49 500.68 323.17 502.60 C 329.85 504.52 335.70 506.73 340.71 509.68 C 345.72 512.62 349.17 515.36 353.24 520.25 C 357.30 525.14 362.12 532.95 365.12 539.00 C 368.11 545.05 370.14 549.44 371.23 556.55 C 372.31 563.65 372.15 573.26 371.63 581.62 C 371.12 589.97 369.93 599.58 368.14 606.69 C 366.34 613.79 364.40 617.97 360.85 624.23 C 357.31 630.50 353.21 636.35 346.85 644.29 C 340.50 652.23 329.62 664.81 322.75 671.87 C 315.88 678.92 311.83 682.37 305.64 686.62 C 299.44 690.87 292.69 694.31 285.59 697.37 C 278.50 700.43 270.15 703.33 263.05 704.96 C 255.95 706.60 249.69 707.21 243.01 707.19 C 236.33 707.17 228.81 706.21 222.96 704.86 C 217.12 703.50 215.03 702.61 207.93 699.04 C 200.84 695.47 186.22 687.19 180.38 683.42 C 174.53 679.66 175.11 679.63 172.86 676.45 C 170.61 673.27 168.33 669.71 166.87 664.35 C 165.41 658.99 164.43 652.65 164.07 644.29 C 163.72 635.93 162.51 628.41 164.75 614.21 C 167.00 600.00 173.69 571.79 177.55 559.05 C 181.41 546.32 181.99 544.90 187.89 537.79 C 193.79 530.68 204.18 521.86 212.94 516.39 C 221.71 510.93 229.65 507.96 240.50 505.02 C 251.36 502.07 268.06 499.86 278.08 498.71 Z"/>
<path d="M 956.99 363.34 C 961.59 362.94 966.18 363.51 969.52 364.44 C 972.86 365.37 974.95 366.92 977.04 368.90 C 979.12 370.89 980.61 372.65 982.05 376.34 C 983.48 380.04 985.03 385.70 985.63 391.09 C 986.23 396.47 986.24 402.79 985.64 408.64 C 985.05 414.48 983.49 421.51 982.05 426.18 C 980.62 430.85 979.54 432.89 977.04 436.66 C 974.54 440.42 972.48 443.79 967.05 448.75 C 961.62 453.70 951.57 462.10 944.47 466.40 C 937.36 470.70 938.20 471.61 924.43 474.54 C 910.65 477.48 873.90 482.53 861.80 484.01 C 849.69 485.50 855.11 484.35 851.77 483.46 C 848.43 482.57 844.42 481.10 841.75 478.66 C 839.09 476.21 836.65 472.53 835.78 468.80 C 834.91 465.07 835.00 460.86 836.54 456.27 C 838.07 451.67 840.87 446.66 844.97 441.23 C 849.07 435.79 855.59 429.11 861.12 423.68 C 866.64 418.25 867.14 416.89 878.11 408.64 C 889.08 400.38 916.29 381.09 926.93 374.12 C 937.57 367.16 936.95 368.62 941.96 366.82 C 946.97 365.03 952.40 363.74 956.99 363.34 Z"/>
<path d="M 541.13 436.12 C 546.51 435.14 555.77 434.06 563.67 435.33 C 571.58 436.60 580.21 439.67 588.56 443.73 C 596.91 447.79 604.98 452.63 613.78 459.69 C 622.58 466.76 634.17 478.33 641.34 486.12 C 648.50 493.90 652.45 499.26 656.76 506.41 C 661.08 513.55 664.85 521.03 667.22 528.97 C 669.59 536.91 670.51 548.61 671.00 554.04 C 671.48 559.47 670.95 559.05 670.15 561.56 C 669.36 564.07 668.10 567.09 666.22 569.08 C 664.34 571.07 662.19 572.65 658.87 573.51 C 655.56 574.37 655.53 576.61 646.35 574.24 C 637.16 571.88 618.37 565.76 603.76 559.30 C 589.14 552.85 571.12 543.49 558.66 535.51 C 546.21 527.52 536.03 518.78 529.03 511.42 C 522.02 504.06 518.91 498.05 516.63 491.36 C 514.35 484.68 514.99 476.74 515.34 471.31 C 515.68 465.88 517.23 462.53 518.70 458.77 C 520.17 455.01 522.03 451.67 524.14 448.75 C 526.26 445.82 528.55 443.33 531.38 441.23 C 534.21 439.12 535.75 437.11 541.13 436.12 Z"/>
<path d="M 265.55 511.16 C 272.65 510.29 280.58 509.58 288.10 509.82 C 295.62 510.06 303.97 511.25 310.65 512.58 C 317.33 513.92 323.18 515.51 328.18 517.83 C 333.19 520.14 336.85 522.52 340.66 526.46 C 344.47 530.41 348.28 536.07 351.02 541.50 C 353.76 546.94 355.84 552.79 357.10 559.05 C 358.36 565.32 358.68 572.01 358.59 579.11 C 358.51 586.21 357.80 594.99 356.61 601.67 C 355.41 608.36 353.96 613.37 351.44 619.22 C 348.92 625.07 346.21 630.08 341.49 636.77 C 336.76 643.45 329.28 652.65 323.10 659.33 C 316.92 666.02 310.25 672.38 304.42 676.88 C 298.58 681.38 294.16 683.56 288.10 686.30 C 282.04 689.05 274.74 691.73 268.06 693.35 C 261.38 694.98 254.28 695.84 248.02 696.05 C 241.75 696.25 235.91 695.64 230.48 694.59 C 225.05 693.55 220.43 691.89 215.45 689.77 C 210.47 687.66 205.50 684.88 200.58 681.89 C 195.67 678.91 189.51 674.79 185.97 671.87 C 182.43 668.94 181.16 667.27 179.34 664.35 C 177.52 661.42 176.13 658.47 175.05 654.32 C 173.97 650.17 172.89 648.22 172.86 639.44 C 172.83 630.67 172.34 614.98 174.85 601.67 C 177.35 588.36 183.21 570.02 187.89 559.60 C 192.57 549.18 196.21 545.51 202.92 539.15 C 209.64 532.80 221.07 525.46 228.17 521.45 C 235.26 517.44 239.28 516.79 245.51 515.08 C 251.74 513.37 258.46 512.04 265.55 511.16 Z"/>
<path d="M 946.97 380.81 C 953.24 379.26 960.46 380.22 964.51 381.10 C 968.56 381.98 969.51 383.99 971.27 386.07 C 973.04 388.15 974.19 390.25 975.10 393.59 C 976.00 396.94 976.69 401.95 976.70 406.13 C 976.71 410.31 976.05 414.90 975.14 418.66 C 974.24 422.42 973.15 425.35 971.26 428.69 C 969.37 432.03 968.27 434.48 963.80 438.72 C 959.34 442.95 951.03 450.20 944.47 454.10 C 937.91 457.99 933.19 460.54 924.43 462.07 C 915.66 463.60 898.97 463.39 891.86 463.26 C 884.75 463.13 884.88 462.45 881.76 461.28 C 878.64 460.12 875.01 457.94 873.14 456.27 C 871.26 454.60 870.91 453.34 870.52 451.25 C 870.14 449.16 868.92 447.91 870.85 443.73 C 872.78 439.55 872.77 435.08 882.12 426.18 C 891.47 417.29 916.12 397.92 926.93 390.36 C 937.74 382.80 940.71 382.35 946.97 380.81 Z"/>
<path d="M 556.16 448.62 C 560.75 448.61 567.01 448.75 573.70 450.82 C 580.38 452.89 589.56 457.26 596.24 461.03 C 602.92 464.80 606.68 467.44 613.78 473.45 C 620.88 479.46 632.96 490.78 638.83 497.11 C 644.70 503.44 646.20 506.11 648.98 511.42 C 651.76 516.73 654.27 523.12 655.51 528.97 C 656.76 534.82 657.14 541.79 656.45 546.52 C 655.76 551.24 653.46 555.00 651.36 557.32 C 649.26 559.64 646.76 560.02 643.84 560.43 C 640.92 560.85 640.92 561.77 633.82 559.82 C 626.72 557.87 613.26 554.27 601.25 548.71 C 589.24 543.15 572.18 533.42 561.75 526.46 C 551.31 519.51 544.05 513.24 538.62 506.97 C 533.20 500.70 530.66 494.80 529.18 488.86 C 527.71 482.91 528.19 476.80 529.76 471.31 C 531.34 465.81 535.89 459.29 538.62 455.89 C 541.35 452.49 543.22 452.13 546.14 450.92 C 549.06 449.71 551.57 448.64 556.16 448.62 Z"/>
<path d="M 263.05 523.60 C 271.13 521.60 275.16 521.94 280.58 521.96 C 286.01 521.98 289.35 522.43 295.62 523.70 C 301.88 524.96 312.32 527.37 318.16 529.55 C 324.01 531.74 327.33 533.97 330.69 536.80 C 334.05 539.63 336.11 542.39 338.32 546.52 C 340.53 550.64 342.68 556.13 343.95 561.56 C 345.22 566.99 345.76 573.26 345.94 579.11 C 346.12 584.96 345.78 590.81 345.03 596.66 C 344.27 602.51 343.10 608.77 341.40 614.21 C 339.70 619.64 338.04 623.82 334.83 629.25 C 331.61 634.68 326.99 641.16 322.13 646.80 C 317.26 652.44 310.47 658.91 305.64 663.09 C 300.80 667.27 298.12 669.16 293.11 671.88 C 288.10 674.61 281.42 677.59 275.57 679.42 C 269.73 681.26 263.47 682.37 258.04 682.89 C 252.61 683.42 249.69 684.07 243.01 682.57 C 236.33 681.08 224.63 676.99 217.95 673.90 C 211.27 670.81 207.00 667.31 202.92 664.05 C 198.84 660.78 196.13 658.86 193.48 654.32 C 190.84 649.77 188.09 644.71 187.06 636.77 C 186.02 628.83 184.99 618.38 187.26 606.69 C 189.53 594.99 196.62 576.18 200.69 566.57 C 204.75 556.96 206.43 554.46 211.66 549.03 C 216.89 543.59 223.52 538.22 232.08 533.98 C 240.65 529.75 254.96 525.61 263.05 523.60 Z"/>
<path d="M 941.96 401.06 C 945.30 400.14 949.26 399.99 951.98 400.83 C 954.71 401.68 956.99 403.57 958.31 406.13 C 959.63 408.68 960.14 413.09 959.92 416.16 C 959.70 419.23 958.73 421.76 956.99 424.54 C 955.25 427.33 952.40 430.59 949.48 432.88 C 946.56 435.16 942.80 437.08 939.46 438.24 C 936.12 439.40 932.78 440.02 929.44 439.84 C 926.10 439.65 921.69 438.57 919.42 437.13 C 917.14 435.69 915.60 434.28 915.81 431.20 C 916.02 428.12 917.96 422.81 920.65 418.66 C 923.34 414.52 928.39 409.27 931.94 406.34 C 935.49 403.41 938.62 401.98 941.96 401.06 Z"/>
<path d="M 558.66 470.91 C 562.00 469.57 566.18 468.64 571.19 469.06 C 576.20 469.48 583.30 471.40 588.73 473.44 C 594.15 475.49 597.91 477.40 603.76 481.31 C 609.60 485.23 618.79 492.64 623.80 496.93 C 628.81 501.22 631.03 503.41 633.82 507.08 C 636.61 510.75 639.11 514.88 640.56 518.94 C 642.02 523.01 642.84 527.75 642.55 531.48 C 642.26 535.20 641.12 539.06 638.83 541.30 C 636.54 543.54 633.82 545.05 628.81 544.89 C 623.80 544.74 615.79 543.01 608.77 540.35 C 601.75 537.70 594.52 533.79 586.70 528.97 C 578.88 524.15 567.75 516.34 561.83 511.42 C 555.90 506.50 553.47 503.20 551.15 499.44 C 548.83 495.68 547.91 492.58 547.91 488.86 C 547.91 485.13 549.36 480.09 551.15 477.10 C 552.94 474.11 555.32 472.25 558.66 470.91 Z"/>
<path d="M 270.56 536.36 C 276.87 535.72 286.43 536.45 293.11 537.66 C 299.79 538.86 306.05 541.62 310.65 543.59 C 315.24 545.55 318.00 547.29 320.67 549.45 C 323.34 551.61 324.97 553.69 326.65 556.55 C 328.33 559.40 329.80 560.31 330.76 566.57 C 331.71 572.84 333.27 584.96 332.39 594.15 C 331.52 603.34 329.35 613.37 325.51 621.73 C 321.66 630.08 316.39 637.70 309.32 644.29 C 302.25 650.88 289.55 657.81 283.09 661.26 C 276.63 664.72 274.74 664.27 270.56 665.03 C 266.39 665.79 261.80 666.07 258.04 665.81 C 254.28 665.54 251.34 664.93 248.02 663.43 C 244.70 661.93 242.49 661.69 238.13 656.82 C 233.76 651.96 224.99 640.95 221.83 634.26 C 218.66 627.58 219.13 626.32 219.13 616.71 C 219.14 607.10 220.91 585.38 221.84 576.60 C 222.76 567.83 222.86 567.83 224.69 564.07 C 226.51 560.31 227.68 557.80 232.78 554.04 C 237.87 550.28 248.97 544.45 255.27 541.50 C 261.57 538.56 264.26 537.00 270.56 536.36 Z"/>
<path d="M 275.57 558.90 C 278.91 557.55 283.66 556.84 288.10 557.70 C 292.54 558.57 298.50 561.34 302.23 564.07 C 305.96 566.80 308.56 570.33 310.48 574.09 C 312.40 577.86 313.55 581.62 313.76 586.63 C 313.98 591.64 313.56 598.10 311.79 604.18 C 310.01 610.25 306.24 618.38 303.13 623.08 C 300.02 627.79 296.87 630.25 293.11 632.39 C 289.35 634.54 284.27 635.63 280.58 635.94 C 276.90 636.25 273.70 635.38 270.98 634.26 C 268.26 633.15 266.01 631.34 264.25 629.25 C 262.49 627.16 261.29 624.65 260.39 621.73 C 259.50 618.80 259.08 616.30 258.90 611.70 C 258.72 607.10 258.63 600.00 259.32 594.15 C 260.01 588.30 261.58 581.33 263.03 576.60 C 264.49 571.87 265.97 568.72 268.06 565.77 C 270.15 562.81 272.23 560.24 275.57 558.90 Z"/>
</g>
</svg>